<svg width="1600" height="311" viewBox="0 0 1600 311" fill="none" xmlns="http://www.w3.org/2000/svg">
<path d="M0 16C0 7.16344 7.16344 0 16 0H1584C1592.84 0 1600 7.16344 1600 16V155.5V233.25V255.014C1600 263.851 1592.84 271.014 1584 271.014H1524C1515.16 271.014 1508 278.178 1508 287.014V295C1508 303.837 1500.84 311 1492 311H1476.5H1453H1376H1142H674H491H308H383H666H173H113.5C104.663 311 97.5 303.837 97.5 295V251.111C97.5 242.416 90.5567 235.313 81.8644 235.115L15.6355 233.606C6.94324 233.408 0 226.305 0 217.61V155.5V16Z" fill="white"/>
</svg>
